<svg width="20" height="20" viewBox="0 0 20 20" fill="none" xmlns="http://www.w3.org/2000/svg">
<path d="M2.59092 0H6.04542C7.47635 0 8.63634 1.43093 8.63634 2.59092V6.04542C8.63634 7.47635 7.47635 8.63634 6.04542 8.63634H2.59092C1.15999 8.63634 0 7.20541 0 6.04542V2.59092C0 1.15999 1.15999 0 2.59092 0Z" fill="#575757"/>
<path d="M13.2276 0H16.6821C18.1131 0 19.2731 1.43093 19.2731 2.59092V6.04542C19.2731 7.47635 18.1131 8.63634 16.6821 8.63634H13.2276C11.7967 8.63634 10.6367 7.20541 10.6367 6.04542V2.59092C10.6367 1.15999 11.7967 0 13.2276 0Z" fill="#575757"/>
<path d="M2.59092 10.6367H6.04542C7.47635 10.6367 8.63634 12.0676 8.63634 13.2276V16.6821C8.63634 18.1131 7.47635 19.2731 6.04542 19.2731H2.59092C1.15999 19.2731 0 17.8421 0 16.6821V13.2276C0 11.7967 1.15999 10.6367 2.59092 10.6367Z" fill="#575757"/>
<path d="M13.2276 10.6367H16.6821C18.1131 10.6367 19.2731 12.0676 19.2731 13.2276V16.6821C19.2731 18.1131 18.1131 19.2731 16.6821 19.2731H13.2276C11.7967 19.2731 10.6367 17.8421 10.6367 16.6821V13.2276C10.6367 11.7967 11.7967 10.6367 13.2276 10.6367Z" fill="#575757"/>
</svg>
