<svg width="64" height="64" viewBox="0 0 64 64" fill="none" xmlns="http://www.w3.org/2000/svg">
<g clip-path="url(#clip0_622_817)">
<path d="M32 0C14.4 0 0 14.4 0 32C0 49.7 14.4 64 32 64C49.6 64 64 49.7 64 32C64 14.4 49.6 0 32 0ZM42.2 16.7C43.6 16.7 44.8 17.9 44.8 19.3C44.8 20.7 43.6 21.9 42.2 21.9C40.8 21.9 39.6 20.7 39.6 19.3C39.6 17.8 40.8 16.7 42.2 16.7ZM21.8 16.7C23.2 16.7 24.4 17.9 24.4 19.3C24.4 20.7 23.2 21.9 21.8 21.9C20.4 21.9 19.2 20.7 19.2 19.3C19.2 17.8 20.4 16.7 21.8 16.7ZM46.2 49.1C45.6 49.1 45.2 48.6 45.2 48.1C45.2 40.9 39.3 35 32 35C24.7 35 18.8 40.9 18.8 48.1C18.8 48.7 18.3 49.1 17.8 49.1C17.2 49.1 16.8 48.6 16.8 48.1C16.7 39.8 23.6 33 32 33C40.4 33 47.3 39.8 47.3 48.1C47.3 48.7 46.8 49.1 46.2 49.1Z" fill="#F9D500"/>
<path d="M64 32C64 49.7 49.6 64 32 64C21.9 64 12.9 59.3 7 52C12.5 56.4 19.4 59 27 59C44.6 59 59 44.7 59 27C59 19.4 56.4 12.5 52 7C59.3 12.9 64 21.9 64 32Z" fill="#EABE03"/>
<path d="M44.7999 19.3002C44.7999 20.7002 43.5999 21.9002 42.1999 21.9002C40.7999 21.9002 39.5999 20.7002 39.5999 19.3002C39.5999 17.9002 40.7999 16.7002 42.1999 16.7002C43.5999 16.7002 44.7999 17.8002 44.7999 19.3002ZM24.3999 19.3002C24.3999 20.7002 23.1999 21.9002 21.7999 21.9002C20.3999 21.9002 19.1999 20.7002 19.1999 19.3002C19.1999 17.9002 20.3999 16.7002 21.7999 16.7002C23.1999 16.7002 24.3999 17.8002 24.3999 19.3002ZM47.2999 48.1002C47.2999 48.7002 46.7999 49.1002 46.2999 49.1002C45.6999 49.1002 45.2999 48.6002 45.2999 48.1002C45.1999 40.9002 39.2999 35.0002 31.9999 35.0002C24.6999 35.0002 18.7999 40.9002 18.7999 48.1002C18.7999 48.7002 18.2999 49.1002 17.7999 49.1002C17.1999 49.1002 16.7999 48.6002 16.7999 48.1002C16.6999 39.8002 23.5999 33.0002 31.9999 33.0002C40.3999 33.0002 47.2999 39.8002 47.2999 48.1002Z" fill="#322E63"/>
</g>
<defs>
<clipPath id="clip0_622_817">
<rect width="64" height="64" fill="white"/>
</clipPath>
</defs>
</svg>
